<?xml version="1.0" encoding="utf-8"?>
<!-- Generator: Adobe Illustrator 23.0.1, SVG Export Plug-In . SVG Version: 6.00 Build 0)  -->
<svg version="1.1" id="Layer_1" xmlns="http://www.w3.org/2000/svg" xmlns:xlink="http://www.w3.org/1999/xlink" x="0px" y="0px"
	 viewBox="0 0 148 30" style="enable-background:new 0 0 148 30;" xml:space="preserve">
<style type="text/css">
	.st0{fill:#414141;}
	.st1{fill:#2563EB;}
	.st2{fill:#00233F;}
	.st3{fill:#92A2A5;}
	.st4{fill:#CED8DB;}
	.st5{fill:#B3C2C6;}
	.st6{fill:#E6F1F4;}
	.st7{fill:#798C8E;}
	.st8{opacity:0.3;}
	.st9{fill:#516477;}
</style>
<path class="st0" d="M84.7,15.1c0.5-0.8,0.7-1.6,0.7-2.6c0-1-0.2-1.8-0.7-2.6c-0.5-0.8-1.1-1.3-2-1.8c-0.8-0.4-1.8-0.6-3-0.6H77
	c-0.3,0-0.6,0.1-0.8,0.3c-0.2-0.2-0.5-0.3-0.8-0.3h-1.2c-0.7,0-1.3,0.6-1.3,1.3v14.4c0,0.7,0.6,1.3,1.3,1.3h1.2
	c0.7,0,1.3-0.6,1.3-1.3v-5.8c0.1,0,0.2,0.1,0.4,0.1h0.7c-0.1,0.4-0.1,0.8,0.2,1.2l3.8,5.3c0.2,0.3,0.6,0.5,1,0.5H84c1,0,1.6-1.2,1-2
	l-3.9-5.1c0.6-0.1,1.1-0.3,1.6-0.5C83.6,16.4,84.2,15.8,84.7,15.1z M81,14.1c-0.4,0.4-1,0.6-1.7,0.6H77c-0.1,0-0.3,0-0.4,0.1v-4.4
	c0.1,0,0.2,0.1,0.4,0.1h2.3c0.8,0,1.3,0.2,1.7,0.6c0.4,0.4,0.6,0.9,0.6,1.5C81.7,13.2,81.5,13.7,81,14.1z"/>
<path class="st0" d="M140.3,7h-1.2c-0.7,0-1.3,0.6-1.3,1.3v14.9c0,0.7,0.6,1.3,1.3,1.3h1.2c0.7,0,1.3-0.6,1.3-1.3V8.3
	C141.6,7.6,141,7,140.3,7z"/>
<path class="st0" d="M134.1,12.8H133c-0.6,0-1.1,0.5-1.2,1.1c-0.3-0.3-0.7-0.6-1.1-0.8c-0.6-0.3-1.3-0.5-2.1-0.5
	c-1.1,0-2,0.3-2.9,0.8c-0.8,0.5-1.5,1.2-2,2.2c-0.5,0.9-0.7,2-0.7,3.1c0,1.2,0.2,2.2,0.7,3.1c0.5,0.9,1.2,1.6,2,2.2
	c0.8,0.5,1.8,0.8,2.9,0.8c0.8,0,1.5-0.2,2.1-0.5c0.4-0.2,0.8-0.5,1.1-0.8c0.1,0.6,0.6,1,1.2,1h1.1c0.7,0,1.3-0.6,1.3-1.3V14
	C135.3,13.3,134.8,12.8,134.1,12.8z M131.2,20.6c-0.5,0.5-1.1,0.8-1.9,0.8c-0.5,0-0.9-0.1-1.3-0.4c-0.4-0.2-0.7-0.6-0.9-1
	s-0.3-0.9-0.3-1.4c0-0.5,0.1-1,0.3-1.4c0.2-0.4,0.6-0.7,0.9-1c0.4-0.2,0.9-0.4,1.4-0.4c0.5,0,1,0.1,1.3,0.4c0.4,0.2,0.7,0.5,0.9,1
	c0.2,0.4,0.3,0.9,0.3,1.4C131.9,19.4,131.6,20.1,131.2,20.6z"/>
<path class="st0" d="M96.1,13.2c-0.9-0.5-1.9-0.7-3-0.7c-1.2,0-2.2,0.3-3.2,0.8c-0.9,0.5-1.7,1.3-2.3,2.2c-0.5,0.9-0.8,2-0.8,3.1
	c0,1.2,0.3,2.2,0.8,3.1c0.6,0.9,1.3,1.7,2.3,2.2c1,0.5,2.1,0.8,3.4,0.8c1,0,1.9-0.2,2.7-0.5c0.3-0.1,0.6-0.3,0.9-0.5
	c0.7-0.4,0.8-1.4,0.2-2l-0.3-0.3c-0.4-0.4-1.1-0.4-1.6-0.1c-0.1,0.1-0.3,0.2-0.4,0.2c-0.5,0.2-1,0.3-1.6,0.3c-0.6,0-1.2-0.1-1.6-0.4
	c-0.4-0.3-0.8-0.6-1.1-1.1c-0.1-0.2-0.1-0.4-0.2-0.5l8.3,0c0.1-0.3,0.1-0.6,0.1-0.8c0-0.2,0-0.5,0-0.7c0-1.1-0.3-2.1-0.8-3
	C97.7,14.4,97,13.7,96.1,13.2z M91.6,15.7c0.4-0.3,0.9-0.4,1.5-0.4c0.5,0,1,0.1,1.4,0.4c0.4,0.2,0.7,0.6,0.9,1
	c0.1,0.2,0.1,0.4,0.2,0.6l-5.1,0c0-0.2,0.1-0.3,0.2-0.5C90.8,16.3,91.1,16,91.6,15.7z"/>
<path class="st0" d="M109.9,13.2c-0.7-0.4-1.4-0.6-2.3-0.6c-0.9,0-1.7,0.2-2.4,0.6c-0.3,0.2-0.6,0.4-0.9,0.6c-0.1-0.6-0.6-1-1.2-1
	H102c-0.7,0-1.3,0.6-1.3,1.3v9.1c0,0.7,0.6,1.3,1.3,1.3h1.2c0.7,0,1.3-0.6,1.3-1.3v-5.4c0-0.4,0.1-0.8,0.3-1.1
	c0.2-0.3,0.4-0.6,0.7-0.7c0.3-0.2,0.7-0.3,1.1-0.3c0.6,0,1,0.2,1.4,0.6c0.4,0.4,0.6,0.9,0.6,1.5v5.4c0,0.7,0.6,1.3,1.3,1.3h1.2
	c0.7,0,1.3-0.6,1.3-1.3V17c0-0.8-0.2-1.5-0.6-2.2C111.1,14.1,110.6,13.6,109.9,13.2z"/>
<path class="st0" d="M121,12.8h-1.4V9.2c0-0.7-0.6-1.3-1.3-1.3h-1.2c-0.7,0-1.3,0.6-1.3,1.3v3.6h-1.4c-0.7,0-1.3,0.6-1.3,1.3v0.6
	c0,0.7,0.6,1.3,1.3,1.3h1.4v7.3c0,0.7,0.6,1.3,1.3,1.3h1.2c0.7,0,1.3-0.6,1.3-1.3v-7.3h1.4c0.7,0,1.3-0.6,1.3-1.3V14
	C122.3,13.3,121.7,12.8,121,12.8z"/>
<path class="st1" d="M3.5,11.8C3.5,11.8,3.6,11.8,3.5,11.8c0.1,0,0.1,0,0.2,0c0.1,0,0.1,0,0.1,0c0,0,0.1,0,0.1,0c0.1,0,0.2,0,0.3,0
	c0.1,0,0.2,0,0.3,0c0.2,0,0.4,0,0.6,0c0.3,0,0.5,0,0.8,0c0.4,0,0.9,0,1.3,0c0.4,0,0.8,0,1.3,0c0,0,0.1,0,0.1,0c0.1,0,0.3,0,0.4,0
	c1.1,0,2.2,0,3.3,0c0,0.2-0.1,0.2-0.1,0.4c-0.3,0.7-0.6,1.4-0.7,2.2c0,0,0,0.1,0,0.1c-0.2,1-0.2,2.1,0,3c0,0,0,0.1,0,0.1
	c0.2,1.2,0.8,2.4,1.5,3.3c0,0,0,0,0,0.1c0.3,0.4,0.7,0.8,1.1,1.2c0,0,0,0,0.1,0c0.4,0.4,0.9,0.7,1.4,0.9c0,0,0,0,0.1,0
	c1,0.5,2,0.7,3.1,0.7c0,0,0,0,0.1,0c0.4,0,0.8,0,1.2-0.1c0,0,0,0,0.1,0c1-0.2,1.9-0.6,2.8-1.2c0,0,0,0,0.1-0.1
	c0.3-0.2,0.5-0.4,0.8-0.7c0,0,0,0,0.1,0c0.2-0.2,0.4-0.4,0.5-0.6c0,0,0-0.1,0.1-0.1c0.3-0.4,0.6-0.8,0.8-1.2c0,0,0-0.1,0-0.1
	c0,0,0,0,0-0.1c0,0,0,0-0.1,0c-0.6,0-1.1,0-1.7,0c-0.3,0-0.5,0-0.8,0c-0.2,0-0.5,0-0.7,0c-0.1,0-0.3,0-0.4,0c-0.1,0-0.2,0-0.4,0
	c0,0-0.1,0-0.1,0c-0.1,0-0.1,0-0.2,0c0,0-0.1,0-0.1,0c-0.1,0-0.1,0-0.1,0c0,0,0-0.1,0-0.2c0,0,0-0.1,0-0.1c0,0,0-0.1,0-0.1
	c0,0,0-0.1,0-0.1c0-0.1,0-0.2,0-0.4c0-0.1,0-0.2,0-0.3c0-0.2,0-0.4,0-0.5c0-0.2,0-0.4,0-0.6c0-0.2,0-0.4,0-0.6c0-0.1,0-0.2,0-0.3
	c0-0.1,0-0.2,0-0.4c0,0,0-0.1,0-0.1c0,0,0-0.1,0-0.1c0,0,0-0.1,0-0.1c0-0.1,0-0.1,0-0.1c0,0,0.1,0,0.1,0c0,0,0.1,0,0.1,0
	c0,0,0.1,0,0.1,0c0,0,0.1,0,0.1,0c0.1,0,0.2,0,0.3,0c0.1,0,0.2,0,0.3,0c0.2,0,0.4,0,0.7,0c0.2,0,0.4,0,0.5,0c0,0,0.1,0,0.1,0
	c0.1,0,0.1,0,0.2,0c0.5,0,1,0,1.4,0c0.4,0,0.8,0,1.2,0c0.5,0,1,0,1.4,0c0.1,0,0.1,0,0.2,0c0,0,0,0,0.1,0c0.2,0,0.4,0,0.5,0
	c0.2,0,0.4,0,0.6,0c0.1,0,0.2,0,0.3,0c0.1,0,0.2,0,0.4,0c0,0,0.1,0,0.1,0c0,0,0.1,0,0.1,0c0,0,0.1,0,0.1,0c0.1,0,0.1,0,0.1,0
	c0,0.1,0,0.3,0,0.4c0,0,0,0,0,0.1c0,0.4,0,0.9-0.1,1.3c0,0.1,0,0.1,0,0.1c-0.3,1.7-0.8,3.4-1.8,4.8c0,0,0,0.1-0.1,0.1
	c-0.1,0.1-0.1,0.2-0.2,0.3c0,0,0,0.1-0.1,0.1c-0.5,0.8-1.1,1.5-1.8,2.1c0,0-0.1,0.1-0.1,0.1c-1.5,1.3-3.4,2.1-5.3,2.4c0,0,0,0-0.1,0
	c-0.5,0.1-0.9,0.1-1.4,0.1c0,0,0,0-0.1,0c-0.4,0-0.8,0-1.2-0.1c0,0-0.1,0-0.1,0c-1-0.1-1.9-0.4-2.8-0.8c0,0,0,0-0.1,0
	c-0.3-0.1-0.6-0.3-0.9-0.5c0,0,0,0-0.1,0c-0.3-0.2-0.6-0.4-0.9-0.6c0,0-0.1,0-0.1-0.1c-0.2-0.1-0.3-0.3-0.5-0.4
	c-0.1-0.1-0.1-0.1-0.2-0.2c-0.1-0.1-0.2-0.2-0.4-0.3c-0.1-0.1-0.1-0.1-0.2-0.2c-0.1-0.1-0.3-0.3-0.4-0.4c0,0,0-0.1-0.1-0.1
	c-0.1-0.2-0.3-0.3-0.4-0.5c0,0,0,0,0-0.1c-0.4-0.5-0.7-1-1-1.6c0-0.1-0.1-0.1-0.1-0.2c-0.3-0.6-0.6-1.2-0.8-1.9c0,0,0,0,0-0.1
	c-0.4-1.2-0.6-2.5-0.6-3.8c0,0,0-0.1,0-0.1c0-0.1,0-0.2,0-0.3c0,0,0,0-0.1,0c-1.2,0-2.1-0.2-3-1.1c-0.6-0.7-1-1.6-1.1-2.6
	C3.4,11.8,3.4,11.8,3.5,11.8z"/>
<path class="st1" d="M0.2,4C0.2,4,0.2,4,0.2,4c0.1,0,0.1,0,0.2,0c0,0,0.1,0,0.1,0c0.1,0,0.2,0,0.3,0C0.8,4,0.9,4,1,4
	c0.2,0,0.3,0,0.5,0C1.7,4,2,4,2.2,4c0.5,0,1,0,1.4,0C4,4,4.4,4,4.8,4C4.9,4,5,4,5.1,4c0,0,0.1,0,0.1,0c0.7,0,1.5,0,2.2,0
	c0,0,0.1,0,0.1,0c0.1,0,0.3,0,0.4,0C7.9,4,8,4,8,4C8,4,8.1,4,8.2,4C9,4,9.9,4,10.8,4c1,0,2,0,3,0c0.1,0,0.2,0,0.3,0c0,0,0.1,0,0.1,0
	c0.4,0,0.8,0,1.3,0c0.4,0,0.8,0,1.3,0c0.3,0,0.5,0,0.8,0c0.2,0,0.4,0,0.6,0c0.1,0,0.2,0,0.2,0c0.7,0,1.3,0,2,0.1c0,0,0,0,0.1,0
	c1.1,0.2,2.2,0.6,3.1,1.1c0.1,0.1,0.2,0.1,0.3,0.1c0.8,0.4,1.5,1,2.2,1.6c0,0,0.1,0.1,0.1,0.1c0,0,0,0,0.1,0.1c0,0,0,0,0.1,0.1
	c0,0,0,0,0,0.1c0,0,0,0,0.1,0c0.1,0,0.1,0.1,0.2,0.1c0,0,0,0,0,0.1c0,0,0,0,0.1,0c0.1,0,0.1,0.1,0.2,0.1c0.1,0.1,0.1,0.2,0.2,0.3
	c0.6,0.8,1.2,1.7,1.6,2.6c0,0.1,0.1,0.1,0.1,0.2c0.1,0.2,0.2,0.5,0.3,0.7c0,0,0,0,0,0.1c0,0.1,0.1,0.2,0,0.3c-0.5,0-1,0-1.5,0
	c-0.2,0-0.5,0-0.7,0c-0.2,0-0.4,0-0.6,0c-0.1,0-0.2,0-0.3,0c-0.6,0-0.6,0-0.8-0.1c-0.1-0.2-0.2-0.3-0.3-0.5
	c-0.1-0.1-0.1-0.2-0.2-0.3c0,0,0,0,0-0.1c-0.2-0.2-0.4-0.4-0.5-0.6c-0.2-0.2-0.2-0.2-0.2-0.2c-1.1-1.3-3-2.1-4.6-2.1
	c-0.2,0-0.4,0-0.6,0c-0.1,0-0.1,0-0.2,0c-0.2,0-0.4,0-0.5,0c-0.2,0-0.4,0-0.6,0c-0.3,0-0.6,0-0.9,0c-0.5,0-1.1,0-1.6,0
	c-0.2,0-0.4,0-0.6,0c0,0,0,0-0.1,0c-0.5,0-1.1,0-1.6,0c0,0,0,0-0.1,0c-0.5,0-1.1,0-1.6,0c0,0,0,0-0.1,0c-0.2,0-0.4,0-0.6,0
	c-0.8,0-1.6,0-2.3,0c-0.1,0-0.2,0-0.3,0c0,0,0,0-0.1,0c-0.3,0-0.7,0-1,0c-0.4,0-0.7,0-1.1,0c-0.2,0-0.4,0-0.6,0c-0.2,0-0.3,0-0.5,0
	c-0.1,0-0.1,0-0.2,0c-1.1,0-2-0.3-2.7-1.1c0,0,0,0-0.1-0.1C0.7,6.4,0.5,6,0.3,5.6c0,0,0-0.1,0-0.1C0.1,5.2,0.1,5,0.1,4.8
	c0,0,0-0.1,0-0.1C0,4.5,0,4.3,0,4C0.1,4,0.1,4,0.2,4z"/>
<ellipse class="st1" cx="45.2" cy="15.2" rx="11.8" ry="12.3"/>
<g>
	<path class="st1" d="M45.2,2.9c6.5,0,11.8,5.5,11.8,12.3s-5.3,12.3-11.8,12.3"/>
	<path class="st2" d="M46.8,3.1c0,0.2-0.2,0.4-0.4,0.4h-2.9c-0.2,0-0.4-0.2-0.4-0.4V3c0-0.2,0.2-0.4,0.4-0.4h2.9
		C46.6,2.6,46.8,2.8,46.8,3.1L46.8,3.1z"/>
	<path class="st2" d="M46.8,27.4c0,0.2-0.2,0.4-0.4,0.4h-2.9c-0.2,0-0.4-0.2-0.4-0.4v-0.1c0-0.2,0.2-0.4,0.4-0.4h2.9
		C46.6,26.9,46.8,27.1,46.8,27.4L46.8,27.4z"/>
	<path class="st2" d="M54.8,7.9c-0.1,0.1-0.4,0.1-0.5,0l-2.2-2.3c-0.1-0.1-0.1-0.4,0-0.5l0,0c0.1-0.1,0.4-0.1,0.5,0l2.2,2.3
		C54.9,7.5,54.9,7.7,54.8,7.9L54.8,7.9z"/>
	<path class="st2" d="M38.2,25.3c-0.1,0.1-0.4,0.1-0.5,0L35.6,23c-0.1-0.1-0.1-0.4,0-0.5l0,0c0.1-0.1,0.4-0.1,0.5,0l2.2,2.3
		C38.3,24.9,38.3,25.1,38.2,25.3L38.2,25.3z"/>
	<path class="st2" d="M57.2,16.5c0,0.2-0.2,0.4-0.4,0.4h-0.1c-0.2,0-0.4-0.2-0.4-0.4v-3c0-0.2,0.2-0.4,0.4-0.4h0.1
		c0.2,0,0.4,0.2,0.4,0.4V16.5z"/>
	<path class="st2" d="M34,16.5c0,0.2-0.2,0.4-0.4,0.4h-0.1c-0.2,0-0.4-0.2-0.4-0.4v-3c0-0.2,0.2-0.4,0.4-0.4h0.1
		c0.2,0,0.4,0.2,0.4,0.4V16.5z"/>
	<path class="st2" d="M52.1,25.3c-0.1-0.1-0.1-0.4,0-0.5l2.2-2.3c0.1-0.1,0.4-0.1,0.5,0l0,0c0.1,0.1,0.1,0.4,0,0.5l-2.2,2.3
		C52.5,25.4,52.3,25.4,52.1,25.3L52.1,25.3z"/>
	<path class="st2" d="M35.6,7.9c-0.1-0.1-0.1-0.4,0-0.5l2.2-2.3c0.1-0.1,0.4-0.1,0.5,0l0,0c0.1,0.1,0.1,0.4,0,0.5L36,7.9
		C35.9,8,35.7,8,35.6,7.9L35.6,7.9z"/>
	<path class="st2" d="M51.3,4.6c-0.1,0.2-0.3,0.3-0.4,0.2L48,3.6c-0.2-0.1-0.3-0.3-0.2-0.5l0,0c0.1-0.2,0.3-0.3,0.4-0.2l2.9,1.2
		C51.3,4.2,51.4,4.4,51.3,4.6L51.3,4.6z"/>
	<path class="st2" d="M42.4,27.3c-0.1,0.2-0.3,0.3-0.4,0.2l-2.8-1.2C39,26.2,38.9,26,39,25.9l0,0c0.1-0.2,0.3-0.3,0.4-0.2l2.8,1.2
		C42.4,26.9,42.5,27.1,42.4,27.3L42.4,27.3z"/>
	<path class="st2" d="M56.7,12.3c-0.2,0.1-0.4,0-0.4-0.2L55,9.1C55,9,55,8.7,55.2,8.7l0,0c0.2-0.1,0.4,0,0.4,0.2l1.2,2.9
		C57,12,56.9,12.2,56.7,12.3L56.7,12.3z"/>
	<path class="st2" d="M35.1,21.8c-0.2,0.1-0.4,0-0.4-0.2l-1.2-2.9c-0.1-0.2,0-0.4,0.2-0.5l0,0c0.2-0.1,0.4,0,0.4,0.2l1.2,2.9
		C35.3,21.5,35.2,21.7,35.1,21.8L35.1,21.8z"/>
	<path class="st2" d="M55.3,21.7c-0.2-0.1-0.3-0.3-0.2-0.5l1.2-3c0.1-0.2,0.3-0.3,0.4-0.2l0,0c0.2,0.1,0.3,0.3,0.2,0.5l-1.2,3
		C55.7,21.7,55.5,21.7,55.3,21.7L55.3,21.7z"/>
	<path class="st2" d="M33.6,12.4c-0.2-0.1-0.3-0.3-0.2-0.5l1.2-3c0.1-0.2,0.3-0.3,0.4-0.2l0,0c0.2,0.1,0.3,0.3,0.2,0.5l-1.2,3
		C34,12.4,33.8,12.4,33.6,12.4L33.6,12.4z"/>
	<path class="st2" d="M48,27.3c-0.1-0.2,0-0.4,0.2-0.5l2.8-1.3c0.2-0.1,0.4,0,0.4,0.2l0,0c0.1,0.2,0,0.4-0.2,0.5l-2.8,1.2
		C48.2,27.6,48,27.5,48,27.3L48,27.3z"/>
	<path class="st2" d="M38.9,4.6c-0.1-0.2,0-0.4,0.2-0.5L41.9,3c0.2-0.1,0.4,0,0.4,0.2l0,0c0.1,0.2,0,0.4-0.2,0.5l-2.8,1.2
		C39.2,4.9,39,4.8,38.9,4.6L38.9,4.6z"/>
</g>
<ellipse class="st3" cx="45.2" cy="15.2" rx="6.5" ry="6.8"/>
<path class="st4" d="M51.6,15.2c0,3.7-2.9,6-6.5,6c-3.6,0-6.5-2.2-6.5-6s2.9-6,6.5-6C48.8,9.3,51.6,11.5,51.6,15.2z"/>
<path class="st5" d="M48.6,15.2c0,2-1.6,4.1-3.5,4.1s-3.5-2.1-3.5-4.1s1.6-4.1,3.5-4.1C47.1,11.1,48.6,13.2,48.6,15.2z"/>
<ellipse class="st6" cx="45.2" cy="15.2" rx="3.5" ry="3.6"/>
<ellipse class="st3" cx="45.2" cy="15.2" rx="2.3" ry="2.4"/>
<g>
	<path class="st7" d="M45.2,17.6c-1.2,0-2.3-1-2.3-2.4c0-1.3,1-2.4,2.3-2.4"/>
	<g class="st8">
		<ellipse class="st7" cx="45.2" cy="8.9" rx="0.2" ry="0.2"/>
		<ellipse class="st7" cx="45.2" cy="9.6" rx="0.2" ry="0.2"/>
		<ellipse class="st7" cx="45.2" cy="10.3" rx="0.2" ry="0.2"/>
		<ellipse class="st7" cx="45.2" cy="11" rx="0.2" ry="0.2"/>
	</g>
	<g class="st8">
		<ellipse class="st7" cx="45.2" cy="19.4" rx="0.2" ry="0.2"/>
		<ellipse class="st7" cx="45.2" cy="20.1" rx="0.2" ry="0.2"/>
		<ellipse class="st7" cx="45.2" cy="20.8" rx="0.2" ry="0.2"/>
		<ellipse class="st7" cx="45.2" cy="21.5" rx="0.2" ry="0.2"/>
	</g>
	<g class="st8">
		<ellipse class="st7" cx="49.4" cy="10.8" rx="0.2" ry="0.2"/>
		<ellipse class="st7" cx="48.9" cy="11.3" rx="0.2" ry="0.2"/>
		<ellipse class="st7" cx="48.5" cy="11.7" rx="0.2" ry="0.2"/>
		<ellipse class="st7" cx="48" cy="12.2" rx="0.2" ry="0.2"/>
	</g>
	<g class="st8">
		<ellipse class="st7" cx="42.3" cy="18.2" rx="0.2" ry="0.2"/>
		<ellipse class="st7" cx="41.8" cy="18.7" rx="0.2" ry="0.2"/>
		<ellipse class="st7" cx="41.4" cy="19.1" rx="0.2" ry="0.2"/>
		<ellipse class="st7" cx="40.9" cy="19.6" rx="0.2" ry="0.2"/>
	</g>
	<g class="st8">
		<ellipse class="st7" cx="51.2" cy="15.2" rx="0.2" ry="0.2"/>
		<ellipse class="st7" cx="50.5" cy="15.2" rx="0.2" ry="0.2"/>
		<ellipse class="st7" cx="49.8" cy="15.2" rx="0.2" ry="0.2"/>
		<ellipse class="st7" cx="49.2" cy="15.2" rx="0.2" ry="0.2"/>
	</g>
	<g class="st8">
		<ellipse class="st7" cx="41.1" cy="15.2" rx="0.2" ry="0.2"/>
		<ellipse class="st7" cx="40.5" cy="15.2" rx="0.2" ry="0.2"/>
		<ellipse class="st7" cx="39.8" cy="15.2" rx="0.2" ry="0.2"/>
		<ellipse class="st7" cx="39.2" cy="15.2" rx="0.2" ry="0.2"/>
	</g>
	<g class="st8">
		<ellipse class="st7" cx="49.4" cy="19.6" rx="0.2" ry="0.2"/>
		<ellipse class="st7" cx="48.9" cy="19.1" rx="0.2" ry="0.2"/>
		<ellipse class="st7" cx="48.5" cy="18.7" rx="0.2" ry="0.2"/>
		<ellipse class="st7" cx="48" cy="18.2" rx="0.2" ry="0.2"/>
	</g>
	<g class="st8">
		<ellipse class="st7" cx="42.3" cy="12.2" rx="0.2" ry="0.2"/>
		<ellipse class="st7" cx="41.8" cy="11.7" rx="0.2" ry="0.2"/>
		<ellipse class="st7" cx="41.4" cy="11.3" rx="0.2" ry="0.2"/>
		<ellipse class="st7" cx="40.9" cy="10.8" rx="0.2" ry="0.2"/>
	</g>
	<g class="st8">
		<ellipse class="st7" cx="47.4" cy="9.4" rx="0.2" ry="0.2"/>
		<ellipse class="st7" cx="47.2" cy="10.1" rx="0.2" ry="0.2"/>
		<ellipse class="st7" cx="47" cy="10.7" rx="0.2" ry="0.2"/>
		<ellipse class="st7" cx="46.7" cy="11.3" rx="0.2" ry="0.2"/>
	</g>
	<g class="st8">
		<ellipse class="st7" cx="43.6" cy="19.1" rx="0.2" ry="0.2"/>
		<ellipse class="st7" cx="43.4" cy="19.7" rx="0.2" ry="0.2"/>
		<ellipse class="st7" cx="43.1" cy="20.4" rx="0.2" ry="0.2"/>
		<ellipse class="st7" cx="42.9" cy="21" rx="0.2" ry="0.2"/>
	</g>
	<g class="st8">
		<ellipse class="st7" cx="50.7" cy="12.8" rx="0.2" ry="0.2"/>
		<ellipse class="st7" cx="50.1" cy="13.1" rx="0.2" ry="0.2"/>
		<ellipse class="st7" cx="49.5" cy="13.3" rx="0.2" ry="0.2"/>
		<ellipse class="st7" cx="48.9" cy="13.6" rx="0.2" ry="0.2"/>
	</g>
	<g class="st8">
		<ellipse class="st7" cx="41.4" cy="16.8" rx="0.2" ry="0.2"/>
		<ellipse class="st7" cx="40.8" cy="17.1" rx="0.2" ry="0.2"/>
		<ellipse class="st7" cx="40.2" cy="17.3" rx="0.2" ry="0.2"/>
		<ellipse class="st7" cx="39.6" cy="17.6" rx="0.2" ry="0.2"/>
	</g>
	<g class="st8">
		<ellipse class="st7" cx="50.7" cy="17.6" rx="0.2" ry="0.2"/>
		<ellipse class="st7" cx="50.1" cy="17.3" rx="0.2" ry="0.2"/>
		<ellipse class="st7" cx="49.5" cy="17.1" rx="0.2" ry="0.2"/>
		<ellipse class="st7" cx="48.9" cy="16.8" rx="0.2" ry="0.2"/>
	</g>
	<g class="st8">
		<ellipse class="st7" cx="41.4" cy="13.6" rx="0.2" ry="0.2"/>
		<ellipse class="st7" cx="40.8" cy="13.3" rx="0.2" ry="0.2"/>
		<ellipse class="st7" cx="40.2" cy="13.1" rx="0.2" ry="0.2"/>
		<ellipse class="st7" cx="39.6" cy="12.8" rx="0.2" ry="0.2"/>
	</g>
	<g class="st8">
		<ellipse class="st7" cx="47.4" cy="21" rx="0.2" ry="0.2"/>
		<ellipse class="st7" cx="47.2" cy="20.4" rx="0.2" ry="0.2"/>
		<ellipse class="st7" cx="47" cy="19.7" rx="0.2" ry="0.2"/>
		<ellipse class="st7" cx="46.7" cy="19.1" rx="0.2" ry="0.2"/>
	</g>
	<g class="st8">
		<ellipse class="st7" cx="43.6" cy="11.3" rx="0.2" ry="0.2"/>
		<ellipse class="st7" cx="43.4" cy="10.7" rx="0.2" ry="0.2"/>
		<ellipse class="st7" cx="43.1" cy="10.1" rx="0.2" ry="0.2"/>
		<ellipse class="st7" cx="42.9" cy="9.4" rx="0.2" ry="0.2"/>
	</g>
</g>
<g>
	<path class="st9" d="M45.2,25.6c-5.6,0-9.9-4.7-9.9-10.4H36c0,5.3,3.9,9.6,9.1,9.6V25.6z"/>
	<path class="st9" d="M55.1,15.2h-0.8c0-5.3-3.9-9.6-9.1-9.6V4.8C50.8,4.8,55.1,9.5,55.1,15.2z"/>
</g>
</svg>
